<svg width="90" height="31" viewBox="0 0 90 31" fill="none" xmlns="http://www.w3.org/2000/svg">
<path fill-rule="evenodd" clip-rule="evenodd" d="M40.6862 20.3738V10.116H37.8685V15.4929C37.8685 16.5379 37.6965 17.2885 37.3526 17.7449C37.0086 18.2012 36.453 18.4294 35.6857 18.4294C35.0111 18.4294 34.5414 18.2211 34.2769 17.8044C34.0123 17.3877 33.88 16.7561 33.88 15.9096V10.116H31.0623V16.4254C31.0623 17.0604 31.1185 17.639 31.2309 18.1615C31.3434 18.684 31.5385 19.1271 31.8163 19.4909C32.0941 19.8546 32.4744 20.1357 32.9573 20.3341C33.4401 20.5325 34.0586 20.6317 34.8126 20.6317C35.4079 20.6317 35.99 20.4995 36.5588 20.2349C37.1277 19.9704 37.5907 19.5405 37.9479 18.9453H38.0074V20.3738H40.6862ZM48.0084 18.5286C48.4714 18.5286 48.8584 18.436 49.1692 18.2508C49.4801 18.0656 49.7315 17.8242 49.9233 17.5266C50.1151 17.229 50.2507 16.8818 50.3301 16.485C50.4094 16.0881 50.4491 15.6847 50.4491 15.2747C50.4491 14.8646 50.4061 14.4612 50.3202 14.0643C50.2342 13.6675 50.092 13.3137 49.8935 13.0028C49.6951 12.692 49.4404 12.4407 49.1296 12.2489C48.8187 12.0571 48.4384 11.9612 47.9886 11.9612C47.5256 11.9612 47.1386 12.0571 46.8277 12.2489C46.5169 12.4407 46.2655 12.6887 46.0737 12.9929C45.8819 13.2972 45.7463 13.6477 45.6669 14.0445C45.5875 14.4413 45.5478 14.8514 45.5478 15.2747C45.5478 15.6847 45.5908 16.0881 45.6768 16.485C45.7628 16.8818 45.9017 17.229 46.0935 17.5266C46.2854 17.8242 46.54 18.0656 46.8575 18.2508C47.175 18.436 47.5586 18.5286 48.0084 18.5286ZM42.8293 10.116H45.5082V11.4255H45.5478C45.8918 10.8699 46.3283 10.4665 46.8575 10.2152C47.3867 9.96385 47.9687 9.83819 48.6037 9.83819C49.4107 9.83819 50.1052 9.99031 50.6873 10.2945C51.2693 10.5988 51.7522 11.0022 52.1358 11.5048C52.5195 12.0075 52.8039 12.5928 52.9891 13.2608C53.1743 13.9288 53.2669 14.6265 53.2669 15.354C53.2669 16.0418 53.1743 16.7032 52.9891 17.3381C52.8039 17.973 52.5228 18.5352 52.1457 19.0246C51.7687 19.514 51.2991 19.9042 50.7369 20.1952C50.1746 20.4862 49.5165 20.6317 48.7625 20.6317C48.1275 20.6317 47.5421 20.5028 47.0063 20.2448C46.4706 19.9869 46.0307 19.6066 45.6867 19.104H45.6471V23.965H42.8293V10.116ZM55.5687 12.0009V20.3738H58.3864V12.0009H60.3311V10.116H58.3864V9.5009C58.3864 9.07762 58.4691 8.7767 58.6345 8.59813C58.7998 8.41956 59.0743 8.33027 59.458 8.33027C59.8152 8.33027 60.1591 8.35011 60.4898 8.38979V6.28664C60.2517 6.27341 60.007 6.25688 59.7556 6.23704C59.5043 6.2172 59.2529 6.20728 59.0016 6.20728C57.8507 6.20728 56.9908 6.49828 56.422 7.08028C55.8531 7.66229 55.5687 8.40963 55.5687 9.32233V10.116H53.882V12.0009H55.5687ZM68.4668 14.1437C68.3345 13.4294 68.0997 12.8871 67.7624 12.5167C67.4251 12.1464 66.9124 11.9612 66.2245 11.9612C65.7748 11.9612 65.401 12.0372 65.1034 12.1894C64.8057 12.3415 64.5676 12.53 64.389 12.7548C64.2104 12.9797 64.0848 13.2178 64.012 13.4691C63.9393 13.7204 63.8963 13.9453 63.883 14.1437H68.4668ZM63.883 15.9294C63.9227 16.8421 64.1542 17.5035 64.5775 17.9135C65.0009 18.3236 65.6094 18.5286 66.4031 18.5286C66.972 18.5286 67.4614 18.3864 67.8715 18.102C68.2816 17.8176 68.533 17.5167 68.6256 17.1992H71.106C70.7091 18.4294 70.1006 19.309 69.2804 19.8381C68.4602 20.3672 67.4681 20.6317 66.3039 20.6317C65.4969 20.6317 64.7694 20.5028 64.1211 20.2448C63.4729 19.9869 62.9239 19.6199 62.4742 19.1437C62.0244 18.6675 61.6771 18.0987 61.4324 17.4373C61.1877 16.776 61.0653 16.0485 61.0653 15.2548C61.0653 14.4876 61.191 13.7733 61.4423 13.112C61.6937 12.4506 62.0508 11.8785 62.5138 11.3957C62.9769 10.9129 63.5292 10.5326 64.1708 10.2549C64.8124 9.97708 65.5234 9.83819 66.3039 9.83819C67.177 9.83819 67.9377 10.0068 68.5859 10.3441C69.2341 10.6814 69.7666 11.1345 70.1833 11.7033C70.6 12.272 70.9009 12.9202 71.0861 13.6477C71.2713 14.3752 71.3375 15.1358 71.2846 15.9294H63.883ZM72.8323 13.2707C72.872 12.6093 73.0374 12.0604 73.3284 11.6239C73.6195 11.1874 73.9899 10.8369 74.4397 10.5723C74.8894 10.3078 75.3954 10.1193 75.9577 10.0068C76.5199 9.89441 77.0854 9.83819 77.6543 9.83819C78.1702 9.83819 78.6927 9.87457 79.2219 9.94732C79.751 10.0201 80.2339 10.1623 80.6704 10.3739C81.107 10.5855 81.4642 10.8798 81.742 11.2568C82.0198 11.6338 82.1587 12.1331 82.1587 12.7548V18.0921C82.1587 18.555 82.1851 18.9982 82.2381 19.4214C82.291 19.8447 82.3836 20.1622 82.5159 20.3738H79.6584C79.6055 20.2151 79.5625 20.053 79.5294 19.8877C79.4964 19.7224 79.4732 19.5537 79.46 19.3818C79.0102 19.8447 78.4811 20.1688 77.8725 20.354C77.264 20.5392 76.6423 20.6317 76.0073 20.6317C75.5178 20.6317 75.0614 20.5722 74.6381 20.4532C74.2148 20.3341 73.8444 20.1489 73.5269 19.8976C73.2094 19.6463 72.9613 19.3288 72.7827 18.9453C72.6041 18.5617 72.5149 18.1053 72.5149 17.5762C72.5149 16.9942 72.6174 16.5147 72.8224 16.1377C73.0275 15.7608 73.292 15.4598 73.6162 15.235C73.9403 15.0101 74.3107 14.8415 74.7274 14.729C75.1441 14.6166 75.5641 14.5273 75.9874 14.4612C76.4108 14.395 76.8275 14.3421 77.2376 14.3024C77.6477 14.2628 78.0114 14.2032 78.3289 14.1239C78.6464 14.0445 78.8978 13.9288 79.083 13.7766C79.2682 13.6245 79.3542 13.403 79.3409 13.112C79.3409 12.8077 79.2913 12.5663 79.1921 12.3878C79.0929 12.2092 78.9606 12.0703 78.7952 11.9711C78.6299 11.8719 78.4381 11.8058 78.2198 11.7727C78.0015 11.7396 77.7667 11.7231 77.5154 11.7231C76.9597 11.7231 76.5232 11.8421 76.2057 12.0802C75.8882 12.3183 75.703 12.7151 75.6501 13.2707H72.8323ZM79.3409 15.354C79.2219 15.4598 79.0731 15.5425 78.8945 15.602C78.7159 15.6616 78.5241 15.7112 78.319 15.7508C78.114 15.7905 77.899 15.8236 77.6741 15.85C77.4492 15.8765 77.2243 15.9096 76.9994 15.9492C76.7878 15.9889 76.5794 16.0418 76.3744 16.108C76.1693 16.1741 75.9907 16.2634 75.8386 16.3758C75.6865 16.4883 75.5641 16.6305 75.4715 16.8024C75.3789 16.9744 75.3326 17.1926 75.3326 17.4572C75.3326 17.7085 75.3789 17.9201 75.4715 18.0921C75.5641 18.264 75.6898 18.3996 75.8485 18.4988C76.0073 18.598 76.1925 18.6675 76.4041 18.7072C76.6158 18.7468 76.8341 18.7667 77.059 18.7667C77.6146 18.7667 78.0445 18.6741 78.3488 18.4889C78.653 18.3037 78.8779 18.0822 79.0234 17.8242C79.169 17.5663 79.2583 17.3051 79.2913 17.0405C79.3244 16.776 79.3409 16.5643 79.3409 16.4056V15.354ZM87.9132 10.116V7.0406H85.0955V10.116H83.389V12.0009H85.0955V18.0524C85.0955 18.5683 85.1815 18.9849 85.3535 19.3024C85.5254 19.6198 85.7602 19.8646 86.0579 20.0365C86.3555 20.2085 86.6995 20.3242 87.0897 20.3837C87.48 20.4433 87.8934 20.473 88.3299 20.473C88.6077 20.473 88.8922 20.4664 89.1832 20.4532C89.4742 20.4399 89.7388 20.4135 89.9769 20.3738V18.1913C89.8446 18.2177 89.7057 18.2376 89.5602 18.2508C89.4147 18.264 89.2626 18.2707 89.1038 18.2707C88.6276 18.2707 88.3101 18.1913 88.1514 18.0326C87.9926 17.8738 87.9132 17.5564 87.9132 17.0802V12.0009H89.9769V10.116H87.9132Z" fill="white"/>
<path fill-rule="evenodd" clip-rule="evenodd" d="M22.6873 22.7228C21.6446 23.7654 20.4666 24.5499 19.1534 25.0761C17.8402 25.6023 16.4999 25.8654 15.1325 25.8653C13.7652 25.8652 12.4249 25.602 11.1116 25.0756C9.79827 24.5493 8.62025 23.7647 7.57745 22.7219C6.53465 21.6791 5.75008 20.5011 5.22372 19.1878C4.69736 17.8745 4.43415 16.5342 4.43407 15.1668C4.434 13.7995 4.69706 12.4592 5.22328 11.146C5.7495 9.83273 6.53393 8.65479 7.57661 7.61211C8.6193 6.56942 9.79724 5.78499 11.1105 5.25877C12.4237 4.73255 13.764 4.46949 15.1313 4.46956C16.4987 4.46964 17.839 4.73285 19.1523 5.25921C20.4656 5.78557 21.6436 6.57014 22.6864 7.61294C23.7292 8.65574 24.5138 9.83376 25.0402 11.1471C25.5665 12.4603 25.8297 13.8007 25.8298 15.168C25.8299 16.5354 25.5668 17.8757 25.0406 19.1889C24.5144 20.5021 23.7299 21.6801 22.6873 22.7228ZM8.50627 8.54176C7.59147 9.45657 6.90785 10.4894 6.45541 11.6403C6.00296 12.7913 5.77923 13.9643 5.78422 15.1595C5.7892 16.3548 6.01798 17.5278 6.47055 18.6788C6.92312 19.8298 7.60685 20.8627 8.52176 21.7776C9.43667 22.6925 10.4696 23.3762 11.6206 23.8288C12.7715 24.2814 13.9422 24.5077 15.1325 24.5078C16.3227 24.5078 17.4933 24.2817 18.6443 23.8292C19.7952 23.3768 20.828 22.6931 21.7428 21.7783C22.6576 20.8635 23.3413 19.8307 23.7937 18.6798C24.2462 17.5288 24.4723 16.3582 24.4723 15.1679C24.4722 13.9776 24.2459 12.807 23.7933 11.6561C23.3408 10.5051 22.657 9.47216 21.7421 8.55725C20.8272 7.64234 19.7943 6.95861 18.6433 6.50604C17.4923 6.05347 16.3193 5.82469 15.124 5.81971C13.9288 5.81472 12.7558 6.03845 11.6049 6.4909C10.4539 6.94334 9.42108 7.62696 8.50627 8.54176ZM12.2991 18.9447C12.1613 19.0824 12.004 19.1513 11.8269 19.1513C11.6498 19.1513 11.4924 19.0824 11.3547 18.9447C11.2268 18.8168 11.1604 18.6618 11.1555 18.4799C11.1505 18.2979 11.2169 18.138 11.3546 18.0003L16.6959 12.659L13.2283 12.6736C13.0414 12.6638 12.884 12.5949 12.7561 12.467C12.6282 12.3391 12.5594 12.1817 12.5495 11.9948C12.5594 11.9063 12.5815 11.8202 12.6159 11.7366C12.6503 11.653 12.6971 11.5817 12.7561 11.5226C12.8151 11.4636 12.8864 11.4169 12.97 11.3825C13.0536 11.3481 13.1397 11.3259 13.2282 11.3161L18.8797 11.3902L18.9538 17.0416C18.9538 17.2384 18.8898 17.4007 18.762 17.5285C18.6341 17.6564 18.4718 17.7203 18.275 17.7203C18.098 17.7203 17.943 17.6539 17.8102 17.5211C17.6774 17.3883 17.611 17.2334 17.611 17.0563L17.6108 13.633L12.2991 18.9447Z" fill="white"/>
</svg>
