<svg width="170" height="108" viewBox="0 0 170 108" fill="none" xmlns="http://www.w3.org/2000/svg">
<g clip-path="url(#clip0)">
<g opacity="0.5">
<path opacity="0.5" d="M25.3737 51.47C39.2876 51.47 50.5671 40.277 50.5671 26.4696C50.5671 12.6622 39.2876 1.46912 25.3737 1.46912C11.4597 1.46912 0.180176 12.6622 0.180176 26.4696C0.180176 40.277 11.4597 51.47 25.3737 51.47Z" fill="url(#paint0_linear)"/>
</g>
<path d="M25.3738 50.8057C38.9936 50.8057 50.0346 39.8492 50.0346 26.3337C50.0346 12.8183 38.9936 1.86182 25.3738 1.86182C11.7539 1.86182 0.712891 12.8183 0.712891 26.3337C0.712891 39.8492 11.7539 50.8057 25.3738 50.8057Z" fill="#F5F5F5"/>
<path d="M25.4436 50.8745C30.2627 50.8824 34.9775 49.4824 39.0001 46.8491C38.0914 41.9219 34.6327 41.6393 34.6327 41.6393H15.5653C15.5653 41.6393 12.3045 41.9046 11.2827 46.4392C15.4284 49.3329 20.3751 50.8823 25.4436 50.8745Z" fill="#6B6B6B"/>
<path d="M25.1846 36.6431C31.2225 36.6431 36.1172 31.7859 36.1172 25.7943C36.1172 19.8026 31.2225 14.9454 25.1846 14.9454C19.1466 14.9454 14.252 19.8026 14.252 25.7943C14.252 31.7859 19.1466 36.6431 25.1846 36.6431Z" fill="#333333"/>
<path opacity="0.1" d="M21.3433 35.6335H28.9715V41.689C28.9715 42.6925 28.5698 43.6549 27.8547 44.3645C27.1396 45.0741 26.1698 45.4728 25.1585 45.4728C24.1472 45.4728 23.1773 45.0741 22.4622 44.3645C21.7472 43.6549 21.3454 42.6925 21.3454 41.689V35.6335H21.3433Z" fill="black"/>
<path d="M22.0718 35.3533H28.2435C28.4367 35.3533 28.6219 35.4294 28.7585 35.5649C28.8951 35.7005 28.9718 35.8843 28.9718 36.076V41.4087C28.9718 42.4122 28.5701 43.3747 27.855 44.0843C27.1399 44.7939 26.17 45.1925 25.1587 45.1925C24.1475 45.1925 23.1776 44.7939 22.4625 44.0843C21.7474 43.3747 21.3457 42.4122 21.3457 41.4087V36.076C21.3457 35.8847 21.4221 35.7012 21.5582 35.5657C21.6943 35.4302 21.879 35.3538 22.0718 35.3533Z" fill="#BE7C5E"/>
<path opacity="0.1" d="M21.3589 38.4918C23.8173 39.4036 26.5235 39.4113 28.9871 38.5134V37.5836H21.3589V38.4918Z" fill="black"/>
<path d="M25.1846 38.999C31.2225 38.999 36.1172 34.1418 36.1172 28.1501C36.1172 22.1585 31.2225 17.3013 25.1846 17.3013C19.1466 17.3013 14.252 22.1585 14.252 28.1501C14.252 34.1418 19.1466 38.999 25.1846 38.999Z" fill="#BE7C5E"/>
<path d="M18.5608 23.676C18.6891 23.2078 18.8499 22.6923 19.2738 22.4485C19.6086 22.2543 20.0238 22.2845 20.4108 22.304C23.4325 22.4679 26.4282 21.7841 29.3673 21.07C31.0478 20.6623 32.8456 20.1661 33.9325 18.8221C35.0195 17.4782 33.6021 13.2543 31.9478 12.7559C30.8608 12.4259 29.5999 13.0407 28.5695 12.5575C28.1108 12.3417 27.7738 11.9383 27.3782 11.6234C26.5673 10.9762 25.526 10.7152 24.5173 10.4692C23.3391 10.1802 22.0651 9.89757 20.9456 10.3614C20.076 10.7195 19.4412 11.4767 18.6173 11.9254C17.0499 12.7883 15.1391 12.387 13.3434 12.3827C12.7369 12.3827 12.013 12.5035 11.7717 13.0558C11.6086 13.4312 11.7391 13.8583 11.7564 14.266C11.8086 15.5604 10.7325 16.5678 9.83036 17.5019C8.92819 18.436 8.07602 19.7692 8.64558 20.9298C8.86297 21.372 9.2608 21.7064 9.48688 22.1443C9.87601 22.9037 9.68036 23.8205 9.82167 24.6597C9.96315 25.2964 10.2029 25.9077 10.5325 26.4718C11.2021 27.7661 14.5651 34.7341 16.1108 32.963C16.8586 32.1001 16.9804 29.6063 17.2825 28.4845C17.6999 26.8723 18.126 25.2695 18.5608 23.676Z" fill="#333333"/>
<path d="M17.4066 29.647C17.9684 29.647 18.4239 28.8 18.4239 27.7551C18.4239 26.7102 17.9684 25.8632 17.4066 25.8632C16.8447 25.8632 16.3892 26.7102 16.3892 27.7551C16.3892 28.8 16.8447 29.647 17.4066 29.647Z" fill="#BE7C5E"/>
<g opacity="0.5">
<path opacity="0.5" d="M83.713 105.883C97.627 105.883 108.906 94.6896 108.906 80.8822C108.906 67.0748 97.627 55.8817 83.713 55.8817C69.799 55.8817 58.5195 67.0748 58.5195 80.8822C58.5195 94.6896 69.799 105.883 83.713 105.883Z" fill="url(#paint1_linear)"/>
</g>
<path d="M83.761 105.194C97.3808 105.194 108.422 94.238 108.422 80.7225C108.422 67.2071 97.3808 56.2506 83.761 56.2506C70.1411 56.2506 59.1001 67.2071 59.1001 80.7225C59.1001 94.238 70.1411 105.194 83.761 105.194Z" fill="#F5F5F5"/>
<path d="M83.7827 105.291C88.5988 105.298 93.3103 103.898 97.3305 101.266C96.4218 96.3388 92.9631 96.0562 92.9631 96.0562H73.9022C73.9022 96.0562 70.6414 96.3215 69.6196 100.856C73.7659 103.75 78.7134 105.3 83.7827 105.291Z" fill="#6B6B6B"/>
<path d="M83.5215 92.0201C90.0961 92.0201 95.4259 86.7312 95.4259 80.2069C95.4259 73.6827 90.0961 68.3938 83.5215 68.3938C76.9469 68.3938 71.6172 73.6827 71.6172 80.2069C71.6172 86.7312 76.9469 92.0201 83.5215 92.0201Z" fill="#F55F44"/>
<path opacity="0.1" d="M79.6807 90.0461H87.3089V96.1016C87.3089 97.1051 86.9072 98.0675 86.1921 98.7771C85.477 99.4867 84.5072 99.8854 83.4959 99.8854C82.4846 99.8854 81.5147 99.4867 80.7996 98.7771C80.0846 98.0675 79.6828 97.1051 79.6828 96.1016V90.0461H79.6807Z" fill="black"/>
<path d="M80.4087 89.7656H86.5804C86.6761 89.7656 86.7708 89.7843 86.8591 89.8206C86.9475 89.857 87.0278 89.9102 87.0954 89.9773C87.163 90.0444 87.2167 90.1241 87.2533 90.2118C87.2899 90.2994 87.3087 90.3934 87.3087 90.4883V95.8211C87.3087 96.318 87.2101 96.81 87.0185 97.2691C86.8268 97.7281 86.546 98.1453 86.1919 98.4966C85.8378 98.848 85.4175 99.1267 84.9548 99.3169C84.4922 99.507 83.9964 99.6049 83.4957 99.6049C82.9949 99.6049 82.4991 99.507 82.0365 99.3169C81.5739 99.1267 81.1535 98.848 80.7994 98.4966C80.4454 98.1453 80.1645 97.7281 79.9729 97.2691C79.7812 96.81 79.6826 96.318 79.6826 95.8211V90.4883C79.6826 90.2966 79.7593 90.1128 79.8959 89.9773C80.0325 89.8418 80.2177 89.7656 80.4109 89.7656H80.4087Z" fill="#FDA57D"/>
<path opacity="0.1" d="M79.6958 92.9045C82.1542 93.8163 84.8604 93.824 87.324 92.9261V91.9963H79.6958V92.9045Z" fill="black"/>
<path d="M83.5215 93.4114C89.5594 93.4114 94.4541 88.5542 94.4541 82.5626C94.4541 76.5709 89.5594 71.7137 83.5215 71.7137C77.4836 71.7137 72.5889 76.5709 72.5889 82.5626C72.5889 88.5542 77.4836 93.4114 83.5215 93.4114Z" fill="#FDA57D"/>
<path d="M83.5064 72.5573C85.9365 72.5573 87.9064 70.6024 87.9064 68.191C87.9064 65.7796 85.9365 63.8247 83.5064 63.8247C81.0764 63.8247 79.1064 65.7796 79.1064 68.191C79.1064 70.6024 81.0764 72.5573 83.5064 72.5573Z" fill="#F55F44"/>
<path d="M83.5063 66.7587C85.1019 66.7587 86.3955 65.4751 86.3955 63.8917C86.3955 62.3083 85.1019 61.0247 83.5063 61.0247C81.9107 61.0247 80.6172 62.3083 80.6172 63.8917C80.6172 65.4751 81.9107 66.7587 83.5063 66.7587Z" fill="#F55F44"/>
<path d="M81.5976 70.5855C80.5653 70.126 79.7511 69.2896 79.324 68.2499C78.8969 67.2103 78.8898 66.0473 79.3042 65.0026C79.2737 65.063 79.2433 65.1255 79.215 65.1881C78.9785 65.7113 78.8482 66.2757 78.8314 66.8489C78.8147 67.4222 78.9119 67.9931 79.1175 68.529C79.3231 69.065 79.6331 69.5555 80.0297 69.9726C80.4263 70.3897 80.9019 70.7251 81.4292 70.9598C81.9564 71.1945 82.5252 71.3239 83.1028 71.3405C83.6805 71.3571 84.2558 71.2606 84.7959 71.0566C85.336 70.8526 85.8303 70.545 86.2506 70.1514C86.6709 69.7578 87.0089 69.2859 87.2454 68.7627C87.2737 68.7001 87.2998 68.6375 87.3259 68.5728C86.8151 69.5749 85.9349 70.3432 84.8681 70.7181C83.8014 71.0929 82.6301 71.0454 81.5976 70.5855Z" fill="#F55F44"/>
<path opacity="0.1" d="M75.7368 72.6953C75.7368 72.6953 80.3433 81.9715 93.3455 76.5784L90.3194 71.8691L84.9564 69.9578L75.7368 72.6953Z" fill="black"/>
<path d="M75.7368 72.5571C75.7368 72.5571 80.3433 81.8333 93.3455 76.4402L90.3194 71.7309L84.9564 69.8196L75.7368 72.5571Z" fill="#F55F44"/>
<path d="M79.2871 69.179C82.1219 68.9578 84.9697 68.9578 87.8045 69.179C87.8045 69.179 81.5132 69.7593 79.2871 69.179Z" fill="#333333"/>
<path d="M84.1673 60.8498C83.9487 60.8419 83.7299 60.8585 83.5151 60.8995H83.6825C84.394 60.922 85.0721 61.2047 85.5864 61.6932C86.1007 62.1816 86.415 62.8414 86.4689 63.5458C86.5228 64.2502 86.3126 64.9496 85.8785 65.5095C85.4445 66.0695 84.8172 66.4505 84.1173 66.5795C84.883 66.5864 85.62 66.2911 86.1663 65.7587C86.7126 65.2263 87.0234 64.5004 87.0304 63.7406C87.0373 62.9808 86.7398 62.2493 86.2032 61.7072C85.6667 61.1651 84.9352 60.8567 84.1695 60.8498H84.1673Z" fill="#F55F44"/>
<path d="M72.5867 84.4436C73.1486 84.4436 73.6041 83.5966 73.6041 82.5517C73.6041 81.5068 73.1486 80.6598 72.5867 80.6598C72.0248 80.6598 71.5693 81.5068 71.5693 82.5517C71.5693 83.5966 72.0248 84.4436 72.5867 84.4436Z" fill="#FDA57D"/>
<path d="M94.4544 84.4436C95.0163 84.4436 95.4718 83.5966 95.4718 82.5517C95.4718 81.5068 95.0163 80.6598 94.4544 80.6598C93.8925 80.6598 93.437 81.5068 93.437 82.5517C93.437 83.5966 93.8925 84.4436 94.4544 84.4436Z" fill="#FDA57D"/>
<path d="M75.0479 72.8311L77.1805 71.7395L77.6609 73.489L76.3544 74.3714L75.0479 72.8311Z" fill="#F55F44"/>
<g opacity="0.5">
<path opacity="0.5" d="M83.6891 50.2426C97.6031 50.2426 108.883 39.0495 108.883 25.2422C108.883 11.4348 97.6031 0.241699 83.6891 0.241699C69.7751 0.241699 58.4956 11.4348 58.4956 25.2422C58.4956 39.0495 69.7751 50.2426 83.6891 50.2426Z" fill="url(#paint2_linear)"/>
</g>
<path d="M83.6892 49.5781C97.309 49.5781 108.35 38.6217 108.35 25.1062C108.35 11.5907 97.309 0.634277 83.6892 0.634277C70.0694 0.634277 59.0283 11.5907 59.0283 25.1062C59.0283 38.6217 70.0694 49.5781 83.6892 49.5781Z" fill="#F5F5F5"/>
<path d="M74.0698 25.3239C74.0698 25.3239 71.2741 38.9922 69.748 38.235C69.748 38.235 84.4654 50.8507 97.4611 38.235C97.4611 38.235 95.172 28.6029 91.8676 25.3239H74.0698Z" fill="#333333"/>
<path d="M83.7587 49.6514C88.5778 49.6592 93.2926 48.2592 97.3152 45.6259C96.4066 40.6987 92.9479 40.4161 92.9479 40.4161H73.8783C73.8783 40.4161 70.6174 40.6815 69.5957 45.216C73.742 48.1102 78.6895 49.6596 83.7587 49.6514Z" fill="#6B6B6B"/>
<path d="M83.498 35.4156C89.536 35.4156 94.4307 30.5584 94.4307 24.5667C94.4307 18.5751 89.536 13.7179 83.498 13.7179C77.4601 13.7179 72.5654 18.5751 72.5654 24.5667C72.5654 30.5584 77.4601 35.4156 83.498 35.4156Z" fill="#333333"/>
<path opacity="0.1" d="M79.6567 34.4061H87.285V40.4616C87.285 41.464 86.8842 42.4254 86.1705 43.1348C85.4568 43.8443 84.4886 44.2437 83.4785 44.2454C82.4672 44.2454 81.4973 43.8467 80.7822 43.1371C80.0672 42.4275 79.6654 41.4651 79.6654 40.4616V34.4061H79.6567Z" fill="black"/>
<path d="M80.3846 34.1257H86.5563C86.7495 34.1257 86.9347 34.2019 87.0713 34.3374C87.2079 34.4729 87.2846 34.6567 87.2846 34.8484V40.1812C87.2846 41.1836 86.8838 42.145 86.1701 42.8544C85.4564 43.5639 84.4882 43.9633 83.4781 43.965C82.4668 43.965 81.4969 43.5663 80.7819 42.8567C80.0668 42.1471 79.665 41.1847 79.665 40.1812V34.8463C79.6656 34.6564 79.7414 34.4745 79.876 34.3397C80.0107 34.2048 80.1933 34.128 80.3846 34.1257Z" fill="#BE7C5E"/>
<path opacity="0.1" d="M79.6719 37.2644C82.1303 38.1762 84.8365 38.1839 87.3001 37.286V36.3562H79.6719V37.2644Z" fill="black"/>
<path d="M83.498 37.7694C89.536 37.7694 94.4307 32.9122 94.4307 26.9205C94.4307 20.9289 89.536 16.0717 83.498 16.0717C77.4601 16.0717 72.5654 20.9289 72.5654 26.9205C72.5654 32.9122 77.4601 37.7694 83.498 37.7694Z" fill="#BE7C5E"/>
<path d="M73.0479 22.8001H93.8957C93.8957 22.8001 92.1153 14.4472 84.2348 14.98C76.3544 15.5129 73.0479 22.8001 73.0479 22.8001Z" fill="#333333"/>
<path d="M72.7913 28.3508C73.3532 28.3508 73.8087 27.5038 73.8087 26.4589C73.8087 25.4141 73.3532 24.567 72.7913 24.567C72.2294 24.567 71.7739 25.4141 71.7739 26.4589C71.7739 27.5038 72.2294 28.3508 72.7913 28.3508Z" fill="#BE7C5E"/>
<path d="M94.1478 28.3508C94.7096 28.3508 95.1652 27.5038 95.1652 26.4589C95.1652 25.4141 94.7096 24.567 94.1478 24.567C93.5859 24.567 93.1304 25.4141 93.1304 26.4589C93.1304 27.5038 93.5859 28.3508 94.1478 28.3508Z" fill="#BE7C5E"/>
<path opacity="0.1" d="M73.0479 23.0805H93.8957C93.8957 23.0805 92.1153 14.7276 84.2348 15.2604C76.3544 15.7933 73.0479 23.0805 73.0479 23.0805Z" fill="black"/>
<g opacity="0.5">
<path opacity="0.5" d="M143.746 50.1325C157.66 50.1325 168.939 38.9394 168.939 25.1321C168.939 11.3247 157.66 0.131592 143.746 0.131592C129.832 0.131592 118.552 11.3247 118.552 25.1321C118.552 38.9394 129.832 50.1325 143.746 50.1325Z" fill="url(#paint3_linear)"/>
</g>
<path d="M143.794 49.4422C157.414 49.4422 168.455 38.4857 168.455 24.9702C168.455 11.4548 157.414 0.498291 143.794 0.498291C130.174 0.498291 119.133 11.4548 119.133 24.9702C119.133 38.4857 130.174 49.4422 143.794 49.4422Z" fill="#F5F5F5"/>
<path d="M143.815 49.5416C148.634 49.5494 153.349 48.1494 157.372 45.5161C156.461 40.5868 153.004 40.3042 153.004 40.3042H133.937C133.937 40.3042 130.676 40.5695 129.654 45.1041C133.8 47.9986 138.746 49.5487 143.815 49.5416Z" fill="#6B6B6B"/>
<path d="M143.557 36.2678C150.131 36.2678 155.461 30.9788 155.461 24.4546C155.461 17.9304 150.131 12.6415 143.557 12.6415C136.982 12.6415 131.652 17.9304 131.652 24.4546C131.652 30.9788 136.982 36.2678 143.557 36.2678Z" fill="#72351C"/>
<path opacity="0.1" d="M139.713 34.2938H147.341V40.3492C147.342 40.8467 147.244 41.3394 147.053 41.7992C146.862 42.2591 146.581 42.677 146.227 43.029C145.872 43.381 145.452 43.6603 144.989 43.8509C144.526 44.0415 144.029 44.1395 143.528 44.1395C142.517 44.1395 141.547 43.7409 140.832 43.0313C140.117 42.3217 139.715 41.3593 139.715 40.3557V34.2938H139.713Z" fill="black"/>
<path d="M140.435 34.0135H146.606C146.799 34.0135 146.985 34.0897 147.121 34.2252C147.258 34.3607 147.335 34.5446 147.335 34.7362V40.069C147.335 41.0725 146.933 42.0349 146.218 42.7445C145.503 43.4542 144.533 43.8528 143.522 43.8528C142.51 43.8528 141.54 43.4542 140.825 42.7445C140.11 42.0349 139.708 41.0725 139.708 40.069V34.7362C139.708 34.5446 139.785 34.3607 139.922 34.2252C140.058 34.0897 140.244 34.0135 140.437 34.0135H140.435Z" fill="#FDA57D"/>
<path opacity="0.1" d="M139.722 37.1521C142.18 38.0639 144.886 38.0716 147.35 37.1737V36.2439H139.722V37.1521Z" fill="black"/>
<path d="M143.557 37.6593C149.595 37.6593 154.489 32.8021 154.489 26.8104C154.489 20.8187 149.595 15.9615 143.557 15.9615C137.519 15.9615 132.624 20.8187 132.624 26.8104C132.624 32.8021 137.519 37.6593 143.557 37.6593Z" fill="#FDA57D"/>
<path opacity="0.1" d="M135.77 16.943C135.77 16.943 140.376 26.2192 153.378 20.8261L150.352 16.1168L144.989 14.2054L135.77 16.943Z" fill="black"/>
<path d="M135.77 16.8071C135.77 16.8071 140.376 26.0834 153.378 20.6902L150.352 15.9809L144.989 14.0696L135.77 16.8071Z" fill="#72351C"/>
<path d="M135.728 16.1795C136.039 15.2253 136.575 14.359 137.293 13.6533C139.443 11.5435 142.969 11.0992 144.778 8.69165C144.876 8.86204 144.938 9.05098 144.958 9.24627C144.978 9.44157 144.956 9.6389 144.895 9.8255C144.834 10.0121 144.733 10.1839 144.601 10.3297C144.468 10.4755 144.307 10.5921 144.126 10.672C145.865 10.6612 147.867 10.5102 148.845 9.09506C149.088 9.65428 149.165 10.2702 149.068 10.8712C148.972 11.4723 148.705 12.0338 148.3 12.4906C149.835 12.5596 151.474 13.5929 151.574 15.116C151.639 16.1299 151 17.0899 150.159 17.6723C149.317 18.2548 148.304 18.5158 147.304 18.7315C144.387 19.3787 133.824 22.0559 135.728 16.1795Z" fill="#72351C"/>
<path d="M154.489 26.9053H154.2L148.561 31.8907C143.126 29.3667 139.139 31.8907 139.139 31.8907L133.226 27.1145L132.63 27.1879C132.711 30.0353 133.917 32.7371 135.988 34.7097C138.059 36.6824 140.829 37.7676 143.699 37.731C146.569 37.6945 149.31 36.5391 151.329 34.5144C153.348 32.4897 154.484 29.7582 154.491 26.9096L154.489 26.9053ZM143.541 33.7977C141.415 33.7977 139.691 33.3663 139.691 32.842C139.691 32.3178 141.415 31.8864 143.541 31.8864C145.667 31.8864 147.391 32.3178 147.391 32.842C147.391 33.3663 145.667 33.7977 143.539 33.7977H143.541Z" fill="#72351C"/>
<path d="M132.619 28.6918C133.181 28.6918 133.637 27.8447 133.637 26.7999C133.637 25.755 133.181 24.908 132.619 24.908C132.058 24.908 131.602 25.755 131.602 26.7999C131.602 27.8447 132.058 28.6918 132.619 28.6918Z" fill="#FDA57D"/>
<path d="M154.487 28.6918C155.049 28.6918 155.505 27.8447 155.505 26.7999C155.505 25.755 155.049 24.908 154.487 24.908C153.925 24.908 153.47 25.755 153.47 26.7999C153.47 27.8447 153.925 28.6918 154.487 28.6918Z" fill="#FDA57D"/>
<g opacity="0.5">
<path opacity="0.5" d="M25.1935 104.245C39.1074 104.245 50.387 93.0522 50.387 79.2449C50.387 65.4375 39.1074 54.2444 25.1935 54.2444C11.2795 54.2444 0 65.4375 0 79.2449C0 93.0522 11.2795 104.245 25.1935 104.245Z" fill="url(#paint4_linear)"/>
</g>
<path d="M25.2414 103.557C38.8613 103.557 49.9023 92.6006 49.9023 79.0851C49.9023 65.5696 38.8613 54.6132 25.2414 54.6132C11.6216 54.6132 0.580566 65.5696 0.580566 79.0851C0.580566 92.6006 11.6216 103.557 25.2414 103.557Z" fill="#F5F5F5"/>
<path d="M25.2631 103.654C30.0814 103.661 34.7954 102.261 38.8174 99.6286C37.9087 94.7014 34.45 94.4188 34.45 94.4188H15.3739C15.3739 94.4188 12.113 94.6842 11.0913 99.2187C15.24 102.115 20.1908 103.664 25.2631 103.654Z" fill="#6B6B6B"/>
<path d="M25.002 90.3827C31.5766 90.3827 36.9064 85.0938 36.9064 78.5696C36.9064 72.0454 31.5766 66.7565 25.002 66.7565C18.4274 66.7565 13.0977 72.0454 13.0977 78.5696C13.0977 85.0938 18.4274 90.3827 25.002 90.3827Z" fill="#333333"/>
<path opacity="0.1" d="M21.1606 88.4088H28.7889V94.4642C28.7889 95.4678 28.3872 96.4302 27.6721 97.1398C26.957 97.8494 25.9871 98.2481 24.9759 98.2481C23.9646 98.2481 22.9947 97.8494 22.2796 97.1398C21.5645 96.4302 21.1628 95.4678 21.1628 94.4642V88.4088H21.1606Z" fill="black"/>
<path d="M21.8889 88.1281H28.0606C28.2538 88.1281 28.439 88.2043 28.5756 88.3398C28.7122 88.4753 28.7889 88.6592 28.7889 88.8508V94.1879C28.7889 95.1914 28.3872 96.1538 27.6721 96.8634C26.957 97.5731 25.9871 97.9717 24.9759 97.9717C24.4749 97.972 23.9789 97.8743 23.516 97.6843C23.0531 97.4943 22.6325 97.2156 22.2782 96.8642C21.9239 96.5128 21.6429 96.0956 21.4511 95.6364C21.2593 95.1772 21.1606 94.685 21.1606 94.1879V88.8487C21.1606 88.657 21.2374 88.4732 21.3739 88.3376C21.5105 88.2021 21.6958 88.126 21.8889 88.126V88.1281Z" fill="#FDB797"/>
<path opacity="0.1" d="M21.1763 91.2672C23.6347 92.179 26.3409 92.1867 28.8045 91.2888V90.3525H21.1763V91.2672Z" fill="black"/>
<path d="M25.0024 91.7739C31.0403 91.7739 35.935 86.9167 35.935 80.925C35.935 74.9334 31.0403 70.0762 25.0024 70.0762C18.9645 70.0762 14.0698 74.9334 14.0698 80.925C14.0698 86.9167 18.9645 91.7739 25.0024 91.7739Z" fill="#FDB797"/>
<path opacity="0.1" d="M17.2173 71.0558C17.2173 71.0558 21.8238 80.332 34.826 74.9389L31.7999 70.2296L26.4369 68.3182L17.2173 71.0558Z" fill="black"/>
<path d="M17.2173 70.9199C17.2173 70.9199 21.8238 80.1961 34.826 74.803L31.7999 70.0937L26.4369 68.1824L17.2173 70.9199Z" fill="#333333"/>
<path d="M17.1759 70.2901C17.4864 69.3359 18.0232 68.4696 18.7411 67.7639C20.8911 65.6541 24.4172 65.2097 26.2259 62.8022C26.3241 62.9726 26.3853 63.1616 26.4055 63.3569C26.4256 63.5522 26.4043 63.7495 26.3428 63.9361C26.2814 64.1227 26.1812 64.2945 26.0487 64.4403C25.9162 64.5861 25.7544 64.7027 25.5737 64.7826C27.3128 64.7718 29.315 64.6208 30.2933 63.2057C30.5354 63.7649 30.6126 64.3808 30.516 64.9818C30.4194 65.5829 30.153 66.1444 29.7476 66.6012C31.2824 66.6702 32.9215 67.7035 33.0215 69.2266C33.0867 70.2405 32.4476 71.2005 31.6063 71.7829C30.765 72.3654 29.7498 72.6307 28.7498 72.8507C25.8324 73.4936 15.2715 76.1708 17.1759 70.2901Z" fill="#333333"/>
<path d="M14.0652 82.8064C14.6271 82.8064 15.0826 81.9594 15.0826 80.9145C15.0826 79.8696 14.6271 79.0226 14.0652 79.0226C13.5034 79.0226 13.0479 79.8696 13.0479 80.9145C13.0479 81.9594 13.5034 82.8064 14.0652 82.8064Z" fill="#FDB797"/>
<path d="M35.9324 82.8064C36.4943 82.8064 36.9498 81.9594 36.9498 80.9145C36.9498 79.8696 36.4943 79.0226 35.9324 79.0226C35.3705 79.0226 34.915 79.8696 34.915 80.9145C34.915 81.9594 35.3705 82.8064 35.9324 82.8064Z" fill="#FDB797"/>
<g opacity="0.5">
<path opacity="0.5" d="M144.685 107.017C158.599 107.017 169.878 95.8241 169.878 82.0167C169.878 68.2093 158.599 57.0162 144.685 57.0162C130.771 57.0162 119.491 68.2093 119.491 82.0167C119.491 95.8241 130.771 107.017 144.685 107.017Z" fill="url(#paint5_linear)"/>
</g>
<path d="M144.685 106.353C158.305 106.353 169.346 95.3965 169.346 81.881C169.346 68.3655 158.305 57.4091 144.685 57.4091C131.065 57.4091 120.024 68.3655 120.024 81.881C120.024 95.3965 131.065 106.353 144.685 106.353Z" fill="#F5F5F5"/>
<path d="M144.754 106.426C149.573 106.434 154.288 105.034 158.311 102.401C157.402 97.4735 153.943 97.1909 153.943 97.1909H134.874C134.874 97.1909 131.613 97.4563 130.591 101.991C134.738 104.885 139.685 106.434 144.754 106.426Z" fill="#6B6B6B"/>
<path opacity="0.1" d="M140.652 91.1809H148.281V97.2363C148.281 98.2399 147.879 99.2023 147.164 99.9119C146.449 100.621 145.479 101.02 144.468 101.02C143.967 101.02 143.471 100.923 143.008 100.733C142.545 100.543 142.124 100.264 141.77 99.9127C141.416 99.5613 141.135 99.144 140.943 98.6848C140.751 98.2256 140.652 97.7334 140.652 97.2363V91.1809Z" fill="black"/>
<path d="M141.381 90.9005H147.552C147.745 90.9005 147.931 90.9766 148.067 91.1122C148.204 91.2477 148.281 91.4315 148.281 91.6232V96.9559C148.281 97.9595 147.879 98.9219 147.164 99.6315C146.449 100.341 145.479 100.74 144.468 100.74C143.967 100.74 143.471 100.642 143.008 100.452C142.545 100.262 142.124 99.9837 141.77 99.6323C141.416 99.2809 141.135 98.8637 140.943 98.4044C140.751 97.9452 140.652 97.453 140.652 96.9559V91.6232C140.652 91.4315 140.729 91.2477 140.866 91.1122C141.002 90.9766 141.187 90.9005 141.381 90.9005Z" fill="#FDB797"/>
<path opacity="0.1" d="M140.667 94.0394C143.126 94.9512 145.832 94.9589 148.296 94.061V93.1312H140.667V94.0394Z" fill="black"/>
<path d="M144.494 94.5462C150.532 94.5462 155.426 89.689 155.426 83.6974C155.426 77.7057 150.532 72.8485 144.494 72.8485C138.456 72.8485 133.561 77.7057 133.561 83.6974C133.561 89.689 138.456 94.5462 144.494 94.5462Z" fill="#FDB797"/>
<path d="M133.787 85.1254C134.349 85.1254 134.804 84.2783 134.804 83.2335C134.804 82.1886 134.349 81.3416 133.787 81.3416C133.225 81.3416 132.77 82.1886 132.77 83.2335C132.77 84.2783 133.225 85.1254 133.787 85.1254Z" fill="#FDB797"/>
<path d="M155.143 85.1254C155.705 85.1254 156.161 84.2783 156.161 83.2335C156.161 82.1886 155.705 81.3416 155.143 81.3416C154.581 81.3416 154.126 82.1886 154.126 83.2335C154.126 84.2783 154.581 85.1254 155.143 85.1254Z" fill="#FDB797"/>
<path d="M141.563 83.7489H138.778C138.256 83.7489 137.833 84.169 137.833 84.6873V85.1317C137.833 85.65 138.256 86.0701 138.778 86.0701H141.563C142.085 86.0701 142.509 85.65 142.509 85.1317V84.6873C142.509 84.169 142.085 83.7489 141.563 83.7489Z" stroke="#333333" stroke-width="2" stroke-miterlimit="10"/>
<path d="M147.426 86.068H150.211C150.733 86.068 151.156 85.6479 151.156 85.1296V84.6852C151.156 84.1669 150.733 83.7468 150.211 83.7468H147.426C146.904 83.7468 146.48 84.1669 146.48 84.6852V85.1296C146.48 85.6479 146.904 86.068 147.426 86.068Z" stroke="#333333" stroke-width="2" stroke-miterlimit="10"/>
<path d="M142.331 83.9733C142.331 83.9733 143.813 83.1751 146.57 83.9733" stroke="#333333" stroke-width="2" stroke-miterlimit="10"/>
<path d="M152.052 75.8341L154.735 82.019C154.735 82.019 158.015 77.9159 152.052 75.8341Z" fill="#858585"/>
<path d="M151.156 84.9096L155.161 81.361" stroke="#333333" stroke-width="2" stroke-linecap="round" stroke-linejoin="round"/>
<path d="M136.939 75.8341L134.257 82.019C134.257 82.019 130.976 77.9159 136.939 75.8341Z" fill="#858585"/>
<path d="M137.833 84.9096L133.774 81.361" stroke="#333333" stroke-width="2" stroke-linecap="round" stroke-linejoin="round"/>
</g>
<defs>
<linearGradient id="paint0_linear" x1="25.3737" y1="51.47" x2="25.3737" y2="1.47127" gradientUnits="userSpaceOnUse">
<stop stop-color="#808080" stop-opacity="0.25"/>
<stop offset="0.54" stop-color="#808080" stop-opacity="0.12"/>
<stop offset="1" stop-color="#808080" stop-opacity="0.1"/>
</linearGradient>
<linearGradient id="paint1_linear" x1="19461.5" y1="24566.8" x2="19461.5" y2="12978.1" gradientUnits="userSpaceOnUse">
<stop stop-color="#808080" stop-opacity="0.25"/>
<stop offset="0.54" stop-color="#808080" stop-opacity="0.12"/>
<stop offset="1" stop-color="#808080" stop-opacity="0.1"/>
</linearGradient>
<linearGradient id="paint2_linear" x1="19456" y1="11615" x2="19456" y2="25.7422" gradientUnits="userSpaceOnUse">
<stop stop-color="#808080" stop-opacity="0.25"/>
<stop offset="0.54" stop-color="#808080" stop-opacity="0.12"/>
<stop offset="1" stop-color="#808080" stop-opacity="0.1"/>
</linearGradient>
<linearGradient id="paint3_linear" x1="33435.9" y1="11588.8" x2="33435.9" y2="0.131592" gradientUnits="userSpaceOnUse">
<stop stop-color="#808080" stop-opacity="0.25"/>
<stop offset="0.54" stop-color="#808080" stop-opacity="0.12"/>
<stop offset="1" stop-color="#808080" stop-opacity="0.1"/>
</linearGradient>
<linearGradient id="paint4_linear" x1="5839.34" y1="24185.7" x2="5839.34" y2="12597" gradientUnits="userSpaceOnUse">
<stop stop-color="#808080" stop-opacity="0.25"/>
<stop offset="0.54" stop-color="#808080" stop-opacity="0.12"/>
<stop offset="1" stop-color="#808080" stop-opacity="0.1"/>
</linearGradient>
<linearGradient id="paint5_linear" x1="33654.5" y1="24831" x2="33654.5" y2="13242.3" gradientUnits="userSpaceOnUse">
<stop stop-color="#808080" stop-opacity="0.25"/>
<stop offset="0.54" stop-color="#808080" stop-opacity="0.12"/>
<stop offset="1" stop-color="#808080" stop-opacity="0.1"/>
</linearGradient>
<clipPath id="clip0">
<rect width="170" height="107" fill="white" transform="translate(0 0.131592)"/>
</clipPath>
</defs>
</svg>
