<svg width="170" height="93" viewBox="0 0 170 93" fill="none" xmlns="http://www.w3.org/2000/svg">
<g clip-path="url(#clip0)">
<path d="M36.7467 91.933H36.3639C36.3639 87.135 34.4684 82.5335 31.0946 79.1409C27.7207 75.7482 23.1447 73.8422 18.3733 73.8422C13.6019 73.8422 9.02597 75.7482 5.65209 79.1409C2.2782 82.5335 0.382778 87.135 0.382778 91.933H0C7.2612e-08 87.0329 1.93575 82.3336 5.38142 78.8687C8.82709 75.4038 13.5004 73.4573 18.3733 73.4573C23.2462 73.4573 27.9196 75.4038 31.3652 78.8687C34.8109 82.3336 36.7467 87.0329 36.7467 91.933Z" fill="#3F3D56"/>
<path d="M169.953 91.933H169.57C169.57 87.135 167.675 82.5336 164.301 79.1409C160.927 75.7482 156.351 73.8422 151.58 73.8422C146.808 73.8422 142.233 75.7482 138.859 79.1409C135.485 82.5336 133.589 87.135 133.589 91.933H133.207C133.207 87.0329 135.142 82.3336 138.588 78.8687C142.034 75.4038 146.707 73.4573 151.58 73.4573C156.453 73.4573 161.126 75.4038 164.572 78.8687C168.017 82.3336 169.953 87.0329 169.953 91.933Z" fill="#3F3D56"/>
<path d="M124.977 47.8605H124.594C124.594 29.6078 109.827 14.7582 91.6752 14.7582C73.5236 14.7582 58.7563 29.6078 58.7563 47.8605H58.3735C58.3735 29.3956 73.3126 14.3733 91.6752 14.3733C110.038 14.3733 124.977 29.3956 124.977 47.8605Z" fill="#3F3D56"/>
<path d="M29.4531 60.0588L42.441 44.5051H67.9759L83.5806 59.7892L83.2654 59.993H83.3779V91.7837H29.4709V59.993L29.4531 60.0588Z" fill="#3F3D56"/>
<path d="M37.2673 53.2972H40.2114V43.0492H37.2673V53.2972Z" fill="#3F3D56"/>
<path d="M42.2383 44.3018L58.2481 63.1764V91.7842H29.4707V59.5858L42.2383 44.3018Z" fill="#6B6B6B"/>
<path d="M54.5485 66.922H48.6714V72.9648H54.5485V66.922Z" fill="#3F3D56"/>
<path d="M54.5485 75.1443H48.6714V81.1871H54.5485V75.1443Z" fill="#3F3D56"/>
<path d="M54.5485 66.922H48.6714V72.9648H54.5485V66.922Z" fill="white"/>
<path d="M54.5485 75.1443H48.6714V81.1871H54.5485V75.1443Z" fill="white"/>
<path d="M46.4205 66.922H40.5435V72.9648H46.4205V66.922Z" fill="#3F3D56"/>
<path d="M46.4205 75.1443H40.5435V81.1871H46.4205V75.1443Z" fill="#3F3D56"/>
<path d="M46.4205 66.922H40.5435V72.9648H46.4205V66.922Z" fill="white"/>
<path d="M46.4205 75.1443H40.5435V81.1871H46.4205V75.1443Z" fill="white"/>
<path d="M38.2926 66.922H32.4155V72.9648H38.2926V66.922Z" fill="#3F3D56"/>
<path d="M38.2926 75.1443H32.4155V81.1871H38.2926V75.1443Z" fill="#3F3D56"/>
<path d="M38.2926 66.922H32.4155V72.9648H38.2926V66.922Z" fill="white"/>
<path d="M38.2926 75.1443H32.4155V81.1871H38.2926V75.1443Z" fill="white"/>
<path d="M95.5032 7.82983H92.8237V14.5658H95.5032V7.82983Z" fill="#6B6B6B"/>
<path d="M95.3119 13.9885H72.5366V91.933H95.3119V13.9885Z" fill="#6B6B6B"/>
<path d="M104.498 13.9885H95.3115V91.933H104.498V13.9885Z" fill="#3F3D56"/>
<path d="M80.0964 20.7244H76.6514V24.1886H80.0964V20.7244Z" fill="white"/>
<path d="M85.6467 20.7244H82.2017V24.1886H85.6467V20.7244Z" fill="white"/>
<path d="M91.197 20.7244H87.752V24.1886H91.197V20.7244Z" fill="white"/>
<path d="M80.192 28.615H76.7471V32.0792H80.192V28.615Z" fill="white"/>
<path d="M85.7424 28.615H82.2974V32.0792H85.7424V28.615Z" fill="white"/>
<path d="M91.2926 28.615H87.8477V32.0792H91.2926V28.615Z" fill="white"/>
<path d="M80.2878 36.5059H76.8428V39.9701H80.2878V36.5059Z" fill="white"/>
<path d="M85.8381 36.5059H82.3931V39.9701H85.8381V36.5059Z" fill="white"/>
<path d="M91.3884 36.5059H87.9434V39.9701H91.3884V36.5059Z" fill="white"/>
<path d="M80.3835 44.3962H76.9385V47.8604H80.3835V44.3962Z" fill="white"/>
<path d="M85.9337 44.3962H82.4888V47.8604H85.9337V44.3962Z" fill="white"/>
<path d="M91.4841 44.3962H88.0391V47.8604H91.4841V44.3962Z" fill="white"/>
<path d="M80.4792 52.2871H77.0342V55.7513H80.4792V52.2871Z" fill="white"/>
<path d="M86.0295 52.2871H82.5845V55.7513H86.0295V52.2871Z" fill="white"/>
<path d="M91.5798 52.2871H88.1348V55.7513H91.5798V52.2871Z" fill="white"/>
<path d="M80.5749 60.1775H77.1299V63.6417H80.5749V60.1775Z" fill="white"/>
<path d="M86.1252 60.1775H82.6802V63.6417H86.1252V60.1775Z" fill="white"/>
<path d="M91.6755 60.1775H88.2305V63.6417H91.6755V60.1775Z" fill="white"/>
<path d="M80.6706 68.0684H77.2256V71.5326H80.6706V68.0684Z" fill="white"/>
<path d="M86.2209 68.0684H82.7759V71.5326H86.2209V68.0684Z" fill="white"/>
<path d="M91.7712 68.0684H88.3262V71.5326H91.7712V68.0684Z" fill="white"/>
<path d="M80.7663 75.9587H77.3213V79.4229H80.7663V75.9587Z" fill="white"/>
<path d="M86.3166 75.9587H82.8716V79.4229H86.3166V75.9587Z" fill="white"/>
<path d="M86.3166 85.1969H82.8716V91.7404H86.3166V85.1969Z" fill="white"/>
<path d="M91.8669 75.9587H88.4219V79.4229H91.8669V75.9587Z" fill="white"/>
<path d="M96.8427 7.82983H95.3115V14.3733H96.8427V7.82983Z" fill="#3F3D56"/>
<path d="M124.211 42.087H121.532V46.0793H124.211V42.087Z" fill="#6B6B6B"/>
<path d="M124.02 45.7371H101.245V91.9329H124.02V45.7371Z" fill="#6B6B6B"/>
<path d="M133.207 45.7371H124.02V91.9329H133.207V45.7371Z" fill="#3F3D56"/>
<path d="M109.187 52.2871H105.742V55.7513H109.187V52.2871Z" fill="white"/>
<path d="M114.737 52.2871H111.292V55.7513H114.737V52.2871Z" fill="white"/>
<path d="M120.288 52.2871H116.843V55.7513H120.288V52.2871Z" fill="white"/>
<path d="M109.283 60.1775H105.838V63.6417H109.283V60.1775Z" fill="white"/>
<path d="M114.833 60.1775H111.388V63.6417H114.833V60.1775Z" fill="white"/>
<path d="M120.383 60.1775H116.938V63.6417H120.383V60.1775Z" fill="white"/>
<path d="M109.379 68.0684H105.934V71.5326H109.379V68.0684Z" fill="white"/>
<path d="M114.929 68.0684H111.484V71.5326H114.929V68.0684Z" fill="white"/>
<path d="M120.479 68.0684H117.034V71.5326H120.479V68.0684Z" fill="white"/>
<path d="M109.474 75.9587H106.029V79.4229H109.474V75.9587Z" fill="white"/>
<path d="M115.025 75.9587H111.58V79.4229H115.025V75.9587Z" fill="white"/>
<path d="M115.025 85.1969H111.58V91.7404H115.025V85.1969Z" fill="white"/>
<path d="M120.575 75.9587H117.13V79.4229H120.575V75.9587Z" fill="white"/>
<path d="M125.551 42.087H124.02V45.9652H125.551V42.087Z" fill="#3F3D56"/>
<path d="M170 91.7002H0.046875V92.1314H170V91.7002Z" fill="#3F3D56"/>
<path d="M140.223 82.9029C142.976 82.9029 145.207 80.6591 145.207 77.8913C145.207 75.1234 142.976 72.8796 140.223 72.8796C137.471 72.8796 135.239 75.1234 135.239 77.8913C135.239 80.6591 137.471 82.9029 140.223 82.9029Z" fill="#6B6B6B"/>
<path opacity="0.2" d="M143.93 74.5441C144.395 75.6376 144.458 76.8617 144.108 77.9976C143.758 79.1336 143.018 80.1074 142.019 80.745C141.021 81.3826 139.83 81.6425 138.659 81.4782C137.487 81.314 136.412 80.7362 135.625 79.8483C135.909 80.5164 136.334 81.1144 136.871 81.6009C137.408 82.0874 138.043 82.4508 138.733 82.6658C139.423 82.8809 140.152 82.9425 140.868 82.8463C141.584 82.7502 142.271 82.4987 142.881 82.1091C143.491 81.7196 144.009 81.2013 144.4 80.5903C144.791 79.9793 145.045 79.2901 145.145 78.5705C145.245 77.8509 145.188 77.1181 144.978 76.4229C144.768 75.7276 144.411 75.0865 143.93 74.5441Z" fill="black"/>
<path d="M140.237 77.8915H140.25L140.497 92.1003H139.977L140.237 77.8915Z" fill="#3F3D56"/>
<path d="M141.144 85.631L141.029 85.4117L140.205 85.8479L140.32 86.0672L141.144 85.631Z" fill="#3F3D56"/>
<path d="M154.875 78.1142C159.061 78.1142 162.454 74.7021 162.454 70.4931C162.454 66.284 159.061 62.8719 154.875 62.8719C150.69 62.8719 147.296 66.284 147.296 70.4931C147.296 74.7021 150.69 78.1142 154.875 78.1142Z" fill="#6B6B6B"/>
<path opacity="0.2" d="M160.513 65.403C161.22 67.0658 161.316 68.9273 160.783 70.6547C160.251 72.3821 159.125 73.863 157.607 74.8326C156.089 75.8022 154.278 76.1974 152.497 75.9476C150.715 75.6978 149.081 74.8192 147.884 73.4689C148.316 74.4848 148.962 75.3942 149.779 76.1341C150.595 76.8739 151.561 77.4265 152.61 77.7535C153.66 78.0805 154.767 78.1742 155.857 78.028C156.946 77.8818 157.99 77.4993 158.918 76.9069C159.845 76.3145 160.633 75.5265 161.228 74.5973C161.822 73.6682 162.209 72.6202 162.361 71.5259C162.512 70.4316 162.426 69.3172 162.107 68.26C161.788 67.2027 161.244 66.2279 160.513 65.403Z" fill="black"/>
<path d="M154.896 70.4933H154.917L155.292 92.1004H154.5L154.896 70.4933Z" fill="#3F3D56"/>
<path d="M156.276 82.2625L156.102 81.9291L154.849 82.5923L155.023 82.9258L156.276 82.2625Z" fill="#3F3D56"/>
<path d="M5.10253 82.7105C7.85504 82.7105 10.0864 80.4668 10.0864 77.6989C10.0864 74.931 7.85504 72.6873 5.10253 72.6873C2.35001 72.6873 0.118652 74.931 0.118652 77.6989C0.118652 80.4668 2.35001 82.7105 5.10253 82.7105Z" fill="#6B6B6B"/>
<path opacity="0.2" d="M8.80948 74.3517C9.27436 75.4452 9.33742 76.6693 8.9874 77.8053C8.63737 78.9412 7.89707 79.915 6.89878 80.5526C5.90048 81.1902 4.70925 81.4501 3.53794 81.2858C2.36664 81.1216 1.29158 80.5438 0.504883 79.6559C0.788868 80.324 1.2139 80.922 1.75054 81.4085C2.28718 81.895 2.92259 82.2584 3.61275 82.4734C4.3029 82.6885 5.03131 82.7501 5.74749 82.654C6.46367 82.5578 7.15051 82.3063 7.76041 81.9167C8.37032 81.5272 8.88871 81.0089 9.27967 80.3979C9.67063 79.7869 9.92481 79.0977 10.0246 78.3781C10.1244 77.6585 10.0674 76.9257 9.85759 76.2305C9.64777 75.5352 9.29015 74.8942 8.80949 74.3517H8.80948Z" fill="black"/>
<path d="M5.11605 77.6991H5.12983L5.37615 91.9079H4.85596L5.11605 77.6991Z" fill="#3F3D56"/>
<path d="M6.0235 85.4386L5.90869 85.2194L5.08484 85.6555L5.19965 85.8748L6.0235 85.4386Z" fill="#3F3D56"/>
<path d="M116.061 7.31698L117.823 5.89997C116.454 5.74812 115.892 6.49875 115.662 7.09288C114.592 6.64638 113.428 7.23154 113.428 7.23154L116.953 8.51843C116.776 8.04077 116.466 7.624 116.061 7.31698Z" fill="#3F3D56"/>
<path d="M27.6391 14.4378L29.401 13.0208C28.0322 12.869 27.4699 13.6196 27.2397 14.2137C26.1704 13.7672 25.0063 14.3524 25.0063 14.3524L28.5315 15.6393C28.3537 15.1616 28.0441 14.7449 27.6391 14.4378Z" fill="#3F3D56"/>
<path d="M142.855 21.7511L144.617 20.3341C143.249 20.1822 142.686 20.9328 142.456 21.527C141.387 21.0805 140.223 21.6656 140.223 21.6656L143.748 22.9525C143.57 22.4749 143.26 22.0581 142.855 21.7511Z" fill="#3F3D56"/>
<path d="M42.1845 10.5888L43.9464 9.17182C42.5777 9.01997 42.0153 9.7706 41.7851 10.3647C40.7158 9.91824 39.5518 10.5034 39.5518 10.5034L43.0769 11.7903C42.8991 11.3126 42.5895 10.8959 42.1845 10.5888Z" fill="#3F3D56"/>
<path d="M45.4384 25.9851L47.2003 24.5681C45.8316 24.4162 45.2692 25.1668 45.039 25.761C43.9697 25.3145 42.8057 25.8996 42.8057 25.8996L46.3308 27.1865C46.153 26.7089 45.8434 26.2921 45.4384 25.9851Z" fill="#3F3D56"/>
<path d="M113.955 34.0683L115.717 32.6513C114.349 32.4995 113.786 33.2501 113.556 33.8442C112.487 33.3977 111.323 33.9829 111.323 33.9829L114.848 35.2698C114.67 34.7921 114.361 34.3753 113.955 34.0683Z" fill="#3F3D56"/>
<path d="M20.287 87.8914H8.4209V88.2763H10.2714V91.9329H10.6542V88.2763H17.8623V91.9329H18.2451V88.2763H20.287V87.8914Z" fill="#3F3D56"/>
<path d="M32.3447 89.4311C31.8763 89.431 31.4162 89.5551 31.0108 89.7909C30.599 89.4165 30.088 89.1703 29.5398 89.0822C28.9916 88.9942 28.4298 89.0681 27.9225 89.2949C27.4153 89.5217 26.9844 89.8917 26.6822 90.36C26.38 90.8283 26.2195 91.3747 26.2202 91.933H35.0144C34.9665 91.2538 34.6644 90.6181 34.1691 90.1538C33.6737 89.6896 33.0218 89.4313 32.3447 89.4311Z" fill="#3F3D56"/>
<path d="M77.704 89.4311C77.2357 89.431 76.7756 89.5551 76.3701 89.7909C75.9584 89.4165 75.4474 89.1703 74.8992 89.0822C74.351 88.9942 73.7892 89.0681 73.2819 89.2949C72.7746 89.5217 72.3438 89.8917 72.0416 90.36C71.7394 90.8283 71.5789 91.3747 71.5796 91.933H80.3738C80.3259 91.2538 80.0238 90.6181 79.5284 90.1538C79.0331 89.6896 78.3812 89.4313 77.704 89.4311Z" fill="#3F3D56"/>
<path d="M107.369 89.4311C106.901 89.431 106.441 89.5551 106.035 89.7909C105.623 89.4165 105.112 89.1703 104.564 89.0822C104.016 88.9942 103.454 89.0681 102.947 89.2949C102.44 89.5217 102.009 89.8917 101.707 90.36C101.404 90.8283 101.244 91.3747 101.245 91.933H110.039C109.991 91.2538 109.689 90.6181 109.193 90.1538C108.698 89.6896 108.046 89.4313 107.369 89.4311Z" fill="#3F3D56"/>
<path d="M146.413 89.4311C145.944 89.431 145.484 89.5551 145.079 89.7909C144.667 89.4165 144.156 89.1703 143.608 89.0822C143.059 88.9942 142.498 89.0681 141.99 89.2949C141.483 89.5217 141.052 89.8917 140.75 90.36C140.448 90.8283 140.287 91.3747 140.288 91.933H149.082C149.034 91.2538 148.732 90.6181 148.237 90.1538C147.742 89.6896 147.09 89.4313 146.413 89.4311Z" fill="#3F3D56"/>
<path d="M165.168 89.4311C164.7 89.431 164.24 89.5551 163.835 89.7909C163.423 89.4165 162.912 89.1703 162.364 89.0822C161.815 88.9942 161.254 89.0681 160.746 89.2949C160.239 89.5217 159.808 89.8917 159.506 90.36C159.204 90.8283 159.043 91.3747 159.044 91.933H167.838C167.79 91.2538 167.488 90.6181 166.993 90.1538C166.497 89.6896 165.846 89.4313 165.168 89.4311Z" fill="#3F3D56"/>
<path d="M24.6892 78.4608H21.627V81.5401H23.0465V91.9157H23.4293V81.5401H24.6892V78.4608Z" fill="#3F3D56"/>
<path d="M20.3104 86.7397H8.44434V87.1247H20.3104V86.7397Z" fill="#3F3D56"/>
<path d="M20.3104 85.7773H8.44434V86.1622H20.3104V85.7773Z" fill="#3F3D56"/>
<path d="M20.3104 84.8149H8.44434V85.1998H20.3104V84.8149Z" fill="#3F3D56"/>
</g>
<defs>
<clipPath id="clip0">
<rect width="170" height="92" fill="white" transform="translate(0 0.131592)"/>
</clipPath>
</defs>
</svg>
